<mxfile modified="2020-09-26T14:01:34.061Z" host="app.diagrams.net" agent="5.0 (Macintosh; Intel Mac OS X 10_15_6) AppleWebKit/537.36 (KHTML, like Gecko) Chrome/85.0.4183.121 Safari/537.36" etag="xUUr2fNDM9BqJyzyalBu" version="13.7.5" type="github">
  <diagram id="Ht1M8jgEwFfnCIfOTk4-" name="Page-1">
    <mxGraphModel dx="1113" dy="695" grid="1" gridSize="10" guides="1" tooltips="1" connect="1" arrows="1" fold="1" page="1" pageScale="1" pageWidth="1169" pageHeight="827" math="0" shadow="0">
      <root>
        <mxCell id="0" />
        <mxCell id="1" parent="0" />
        <mxCell id="Xmpuv8B8h_axhn6lkmNJ-7" value="AWS Cloud" style="points=[[0,0],[0.25,0],[0.5,0],[0.75,0],[1,0],[1,0.25],[1,0.5],[1,0.75],[1,1],[0.75,1],[0.5,1],[0.25,1],[0,1],[0,0.75],[0,0.5],[0,0.25]];outlineConnect=0;gradientColor=none;html=1;whiteSpace=wrap;fontSize=12;fontStyle=0;shape=mxgraph.aws4.group;grIcon=mxgraph.aws4.group_aws_cloud_alt;strokeColor=#232F3E;fillColor=none;verticalAlign=top;align=left;spacingLeft=30;fontColor=#232F3E;dashed=0;" vertex="1" parent="1">
          <mxGeometry x="40" y="50" width="920" height="590" as="geometry" />
        </mxCell>
        <mxCell id="Xmpuv8B8h_axhn6lkmNJ-15" value="" style="group" vertex="1" connectable="0" parent="1">
          <mxGeometry x="80" y="360" width="280" height="260" as="geometry" />
        </mxCell>
        <mxCell id="Xmpuv8B8h_axhn6lkmNJ-14" value="EC2 instance contents" style="points=[[0,0],[0.25,0],[0.5,0],[0.75,0],[1,0],[1,0.25],[1,0.5],[1,0.75],[1,1],[0.75,1],[0.5,1],[0.25,1],[0,1],[0,0.75],[0,0.5],[0,0.25]];outlineConnect=0;gradientColor=none;html=1;whiteSpace=wrap;fontSize=12;fontStyle=0;shape=mxgraph.aws4.group;grIcon=mxgraph.aws4.group_ec2_instance_contents;strokeColor=#D86613;fillColor=none;verticalAlign=top;align=left;spacingLeft=30;fontColor=#D86613;dashed=0;" vertex="1" parent="Xmpuv8B8h_axhn6lkmNJ-15">
          <mxGeometry width="280" height="260" as="geometry" />
        </mxCell>
        <mxCell id="Xmpuv8B8h_axhn6lkmNJ-9" value="" style="outlineConnect=0;dashed=0;verticalLabelPosition=bottom;verticalAlign=top;align=center;html=1;shape=mxgraph.aws3.ec2;fillColor=#F58534;gradientColor=none;" vertex="1" parent="Xmpuv8B8h_axhn6lkmNJ-15">
          <mxGeometry x="20" y="136" width="90" height="90" as="geometry" />
        </mxCell>
        <mxCell id="Xmpuv8B8h_axhn6lkmNJ-11" value="" style="shape=image;html=1;verticalAlign=top;verticalLabelPosition=bottom;labelBackgroundColor=#ffffff;imageAspect=0;image=https://cdn0.iconfinder.com/data/icons/long-shadow-web-icons/512/ruby-rails-128.png" vertex="1" parent="Xmpuv8B8h_axhn6lkmNJ-15">
          <mxGeometry x="150" y="30" width="90" height="90" as="geometry" />
        </mxCell>
        <mxCell id="Xmpuv8B8h_axhn6lkmNJ-13" value="" style="outlineConnect=0;dashed=0;verticalLabelPosition=bottom;verticalAlign=top;align=center;html=1;shape=mxgraph.aws3.mysql_db_instance_2;fillColor=#2E73B8;gradientColor=none;" vertex="1" parent="Xmpuv8B8h_axhn6lkmNJ-15">
          <mxGeometry x="150" y="136" width="90" height="90" as="geometry" />
        </mxCell>
      </root>
    </mxGraphModel>
  </diagram>
</mxfile>
